<?xml version="1.0" standalone="no"?><svg xmlns:xlink="http://www.w3.org/1999/xlink" xmlns="http://www.w3.org/2000/svg" viewBox="0 0 1000 562.5041915364495" preserveAspectRatio="xMaxYMax slice"><g transform="scale(0.8383072899201931)"><rect x="0" y="0" width="1192.888888888889" height="671" fill="#ffffff"/><circle cx="37.275" cy="37.275" r="7.455" fill="#183FE1"/><circle cx="111.835" cy="37.275" r="7.455" fill="#183FE1"/><circle cx="186.38500000000002" cy="37.275" r="7.455" fill="#FF3565"/><circle cx="260.945" cy="37.275" r="7.455" fill="#FF3565"/><circle cx="335.495" cy="37.275" r="7.455" fill="#183FE1"/><circle cx="410.055" cy="37.275" r="7.455" fill="#183FE1"/><circle cx="484.615" cy="37.275" r="7.455" fill="#FF3565"/><circle cx="559.1650000000001" cy="37.275" r="7.455" fill="#FF3565"/><circle cx="633.725" cy="37.275" r="7.455" fill="#183FE1"/><circle cx="708.2750000000001" cy="37.275" r="7.455" fill="#183FE1"/><circle cx="782.835" cy="37.275" r="7.455" fill="#183FE1"/><circle cx="857.385" cy="37.275" r="7.455" fill="#183FE1"/><circle cx="931.945" cy="37.275" r="7.455" fill="#183FE1"/><circle cx="1006.495" cy="37.275" r="7.455" fill="#183FE1"/><circle cx="1081.0549999999998" cy="37.275" r="7.455" fill="#183FE1"/><circle cx="1155.615" cy="37.275" r="7.455" fill="#183FE1"/><circle cx="37.275" cy="111.835" r="7.455" fill="#FF3565"/><circle cx="111.83000000000001" cy="111.83000000000001" r="8.65" fill="#FF3565"/><circle cx="186.39000000000001" cy="111.83" r="9.84" fill="#FF3565"/><circle cx="260.945" cy="111.835" r="11.035" fill="#183FE1"/><circle cx="335.495" cy="111.835" r="12.225" fill="#FF3565"/><circle cx="410.06" cy="111.83" r="13.42" fill="#FF3565"/><circle cx="484.615" cy="111.835" r="14.615" fill="#183FE1"/><circle cx="559.17" cy="111.84" r="15.41" fill="#183FE1"/><circle cx="633.7199999999999" cy="111.84" r="15.41" fill="#183FE1"/><circle cx="708.28" cy="111.84" r="15.41" fill="#183FE1"/><circle cx="782.835" cy="111.835" r="14.615" fill="#FF3565"/><circle cx="857.39" cy="111.83" r="13.42" fill="#FF3565"/><circle cx="931.945" cy="111.835" r="12.225" fill="#FF3565"/><circle cx="1006.505" cy="111.835" r="11.035" fill="#183FE1"/><circle cx="1081.05" cy="111.83" r="9.84" fill="#FF3565"/><circle cx="1155.6100000000001" cy="111.83000000000001" r="8.65" fill="#FF3565"/><circle cx="37.275" cy="186.38500000000002" r="7.455" fill="#183FE1"/><circle cx="111.83" cy="186.39000000000001" r="9.84" fill="#183FE1"/><circle cx="186.385" cy="186.385" r="12.225" fill="#183FE1"/><circle cx="260.945" cy="186.395" r="14.615" fill="#183FE1"/><circle cx="335.5" cy="186.39" r="17" fill="#183FE1"/><circle cx="410.055" cy="186.385" r="19.385" fill="#FF3565"/><circle cx="484.60999999999996" cy="186.39000000000001" r="21.77" fill="#183FE1"/><circle cx="559.17" cy="186.39" r="23.36" fill="#FF3565"/><circle cx="633.72" cy="186.39" r="23.36" fill="#FF3565"/><circle cx="708.28" cy="186.39" r="23.36" fill="#183FE1"/><circle cx="782.8299999999999" cy="186.39000000000001" r="21.77" fill="#FF3565"/><circle cx="857.385" cy="186.385" r="19.385" fill="#183FE1"/><circle cx="931.95" cy="186.39" r="17" fill="#FF3565"/><circle cx="1006.505" cy="186.395" r="14.615" fill="#183FE1"/><circle cx="1081.0549999999998" cy="186.385" r="12.225" fill="#FF3565"/><circle cx="1155.61" cy="186.39000000000001" r="9.84" fill="#FF3565"/><circle cx="37.275" cy="260.945" r="7.455" fill="#FF3565"/><circle cx="111.835" cy="260.945" r="11.035" fill="#183FE1"/><circle cx="186.395" cy="260.945" r="14.615" fill="#183FE1"/><circle cx="260.94" cy="260.94" r="18.19" fill="#FF3565"/><circle cx="335.5" cy="260.94" r="21.77" fill="#183FE1"/><circle cx="410.06" cy="260.95" r="25.35" fill="#FF3565"/><circle cx="484.61" cy="260.95" r="28.93" fill="#183FE1"/><circle cx="559.1650000000001" cy="260.945" r="31.315" fill="#FF3565"/><circle cx="633.725" cy="260.945" r="31.315" fill="#183FE1"/><circle cx="708.2750000000001" cy="260.945" r="31.315" fill="#183FE1"/><circle cx="782.8399999999999" cy="260.95" r="28.93" fill="#183FE1"/><circle cx="857.39" cy="260.95" r="25.35" fill="#FF3565"/><circle cx="931.9399999999999" cy="260.94" r="21.77" fill="#FF3565"/><circle cx="1006.5" cy="260.94" r="18.19" fill="#183FE1"/><circle cx="1081.055" cy="260.945" r="14.615" fill="#183FE1"/><circle cx="1155.615" cy="260.945" r="11.035" fill="#183FE1"/><circle cx="37.275" cy="335.495" r="7.455" fill="#FF3565"/><circle cx="111.83000000000001" cy="335.5" r="11.93" fill="#FF3565"/><circle cx="186.39000000000001" cy="335.5" r="16.4" fill="#183FE1"/><circle cx="260.945" cy="335.495" r="20.875" fill="#183FE1"/><circle cx="335.5" cy="335.5" r="25.35" fill="#183FE1"/><circle cx="410.05" cy="335.5" r="29.82" fill="#183FE1"/><circle cx="484.615" cy="335.495" r="34.295" fill="#FF3565"/><circle cx="559.17" cy="335.5" r="37.28" fill="#FF3565"/><circle cx="633.72" cy="335.5" r="37.28" fill="#FF3565"/><circle cx="708.28" cy="335.5" r="37.28" fill="#FF3565"/><circle cx="782.8349999999999" cy="335.495" r="34.295" fill="#183FE1"/><circle cx="857.3900000000001" cy="335.5" r="29.82" fill="#FF3565"/><circle cx="931.95" cy="335.5" r="25.35" fill="#FF3565"/><circle cx="1006.495" cy="335.495" r="20.875" fill="#FF3565"/><circle cx="1081.0500000000002" cy="335.5" r="16.4" fill="#FF3565"/><circle cx="1155.6100000000001" cy="335.5" r="11.93" fill="#FF3565"/><circle cx="37.275" cy="410.055" r="7.455" fill="#FF3565"/><circle cx="111.83000000000001" cy="410.06" r="11.93" fill="#183FE1"/><circle cx="186.39000000000001" cy="410.04999999999995" r="16.4" fill="#183FE1"/><circle cx="260.945" cy="410.055" r="20.875" fill="#183FE1"/><circle cx="335.5" cy="410.06" r="25.35" fill="#183FE1"/><circle cx="410.05" cy="410.05" r="29.82" fill="#183FE1"/><circle cx="484.615" cy="410.055" r="34.295" fill="#183FE1"/><circle cx="559.17" cy="410.05999999999995" r="37.28" fill="#FF3565"/><circle cx="633.72" cy="410.05999999999995" r="37.28" fill="#FF3565"/><circle cx="708.28" cy="410.05999999999995" r="37.28" fill="#183FE1"/><circle cx="782.8349999999999" cy="410.055" r="34.295" fill="#FF3565"/><circle cx="857.3900000000001" cy="410.05" r="29.82" fill="#FF3565"/><circle cx="931.95" cy="410.06" r="25.35" fill="#183FE1"/><circle cx="1006.495" cy="410.055" r="20.875" fill="#183FE1"/><circle cx="1081.0500000000002" cy="410.04999999999995" r="16.4" fill="#FF3565"/><circle cx="1155.6100000000001" cy="410.06" r="11.93" fill="#FF3565"/><circle cx="37.275" cy="484.615" r="7.455" fill="#183FE1"/><circle cx="111.835" cy="484.615" r="11.035" fill="#FF3565"/><circle cx="186.395" cy="484.615" r="14.615" fill="#FF3565"/><circle cx="260.94" cy="484.61" r="18.19" fill="#FF3565"/><circle cx="335.5" cy="484.60999999999996" r="21.77" fill="#183FE1"/><circle cx="410.06" cy="484.61" r="25.35" fill="#183FE1"/><circle cx="484.61" cy="484.61" r="28.93" fill="#183FE1"/><circle cx="559.1650000000001" cy="484.615" r="31.315" fill="#183FE1"/><circle cx="633.725" cy="484.615" r="31.315" fill="#183FE1"/><circle cx="708.2750000000001" cy="484.615" r="31.315" fill="#183FE1"/><circle cx="782.8399999999999" cy="484.61" r="28.93" fill="#183FE1"/><circle cx="857.39" cy="484.61" r="25.35" fill="#183FE1"/><circle cx="931.9399999999999" cy="484.60999999999996" r="21.77" fill="#183FE1"/><circle cx="1006.5" cy="484.61" r="18.19" fill="#FF3565"/><circle cx="1081.055" cy="484.615" r="14.615" fill="#FF3565"/><circle cx="1155.615" cy="484.615" r="11.035" fill="#183FE1"/><circle cx="37.275" cy="559.1650000000001" r="7.455" fill="#FF3565"/><circle cx="111.83" cy="559.1700000000001" r="9.84" fill="#183FE1"/><circle cx="186.385" cy="559.1650000000001" r="12.225" fill="#183FE1"/><circle cx="260.945" cy="559.165" r="14.615" fill="#183FE1"/><circle cx="335.5" cy="559.17" r="17" fill="#FF3565"/><circle cx="410.055" cy="559.165" r="19.385" fill="#FF3565"/><circle cx="484.60999999999996" cy="559.17" r="21.77" fill="#FF3565"/><circle cx="559.17" cy="559.17" r="23.36" fill="#FF3565"/><circle cx="633.72" cy="559.17" r="23.36" fill="#183FE1"/><circle cx="708.28" cy="559.17" r="23.36" fill="#183FE1"/><circle cx="782.8299999999999" cy="559.17" r="21.77" fill="#FF3565"/><circle cx="857.385" cy="559.165" r="19.385" fill="#183FE1"/><circle cx="931.95" cy="559.17" r="17" fill="#183FE1"/><circle cx="1006.505" cy="559.165" r="14.615" fill="#183FE1"/><circle cx="1081.0549999999998" cy="559.1650000000001" r="12.225" fill="#183FE1"/><circle cx="1155.61" cy="559.1700000000001" r="9.84" fill="#FF3565"/><circle cx="37.275" cy="633.725" r="7.455" fill="#183FE1"/><circle cx="111.83000000000001" cy="633.72" r="8.65" fill="#FF3565"/><circle cx="186.39000000000001" cy="633.72" r="9.84" fill="#183FE1"/><circle cx="260.945" cy="633.725" r="11.035" fill="#FF3565"/><circle cx="335.495" cy="633.725" r="12.225" fill="#FF3565"/><circle cx="410.06" cy="633.7199999999999" r="13.42" fill="#FF3565"/><circle cx="484.615" cy="633.725" r="14.615" fill="#183FE1"/><circle cx="559.17" cy="633.7199999999999" r="15.41" fill="#183FE1"/><circle cx="633.7199999999999" cy="633.7199999999999" r="15.41" fill="#183FE1"/><circle cx="708.28" cy="633.7199999999999" r="15.41" fill="#FF3565"/><circle cx="782.835" cy="633.725" r="14.615" fill="#183FE1"/><circle cx="857.39" cy="633.7199999999999" r="13.42" fill="#FF3565"/><circle cx="931.945" cy="633.725" r="12.225" fill="#183FE1"/><circle cx="1006.505" cy="633.725" r="11.035" fill="#183FE1"/><circle cx="1081.05" cy="633.72" r="9.84" fill="#183FE1"/><circle cx="1155.6100000000001" cy="633.72" r="8.65" fill="#FF3565"/></g></svg>