<?xml version="1.0" standalone="no"?><svg xmlns:xlink="http://www.w3.org/1999/xlink" xmlns="http://www.w3.org/2000/svg" viewBox="0 0 1000 562.5041915364495" preserveAspectRatio="xMaxYMax slice"><g transform="scale(0.8383072899201931)"><rect x="0" y="0" width="1192.888888888889" height="671" fill="#ffffff"/><rect x="0" y="0" width="74.55555555555556" height="74.55555555555556" fill="#ffffff"/><path d="M 0 37.28 A 37.28 37.28 0 0 1  37.28 0 L 0 37.28 A 37.28 37.28 0 0 0 37.28 0" fill="#acbaf4"/><rect x="149.11111111111111" y="0" width="74.55555555555556" height="74.55555555555556" fill="#ffffff"/><path d="M 671 0 A 74.56 74.56 0 0 1  745.56 74.56 L 671 0 A 74.56 74.56 0 0 0 745.56 74.56" fill="#8fa2f0"/><path d="M 820.11 0 A 74.56 74.56 0 0 1  894.6700000000001 74.56 L 820.11 0 A 74.56 74.56 0 0 0 894.6700000000001 74.56" fill="#ff567e"/><path d="M 894.67 0 A 74.56 74.56 0 0 1  969.23 74.56 L 894.67 0 A 74.56 74.56 0 0 0 969.23 74.56" fill="#ff9eb5"/><path d="M 0 149.12 A 74.56 74.56 0 0 1  74.56 74.56 L 0 149.12 A 74.56 74.56 0 0 0 74.56 74.56" fill="#fff7f9"/><rect x="372.77777777777777" y="74.55555555555556" width="74.55555555555556" height="74.55555555555556" fill="#ffffff"/><path d="M 372.78 111.84 A 37.28 37.28 0 0 1  410.05999999999995 74.56 L 372.78 111.84 A 37.28 37.28 0 0 0 410.05999999999995 74.56" fill="#ffceda"/><rect x="596.4444444444445" y="74.55555555555556" width="74.55555555555556" height="74.55555555555556" fill="#ffffff"/><path d="M 596.44 111.84 A 37.28 37.28 0 0 1  633.72 74.56 L 596.44 111.84 A 37.28 37.28 0 0 0 633.72 74.56" fill="#4362e7"/><path d="M 633.72 111.83 A 37.28 37.28 0 0 1  671 149.11 L 633.72 111.83 A 37.28 37.28 0 0 0 671 149.11" fill="#5572e9"/><path d="M 745.56 149.12 A 74.56 74.56 0 0 1  820.1199999999999 74.56 L 745.56 149.12 A 74.56 74.56 0 0 0 820.1199999999999 74.56" fill="#4867e7"/><path d="M 149.11 149.11 A 74.56 74.56 0 0 1  223.67000000000002 223.67000000000002 L 149.11 149.11 A 74.56 74.56 0 0 0 223.67000000000002 223.67000000000002" fill="#ff8aa6"/><rect x="820.1111111111111" y="149.11111111111111" width="74.55555555555556" height="74.55555555555556" fill="#ffffff"/><path d="M 820.11 149.11 A 37.28 37.28 0 0 1  857.39 186.39000000000001 L 820.11 149.11 A 37.28 37.28 0 0 0 857.39 186.39000000000001" fill="#5d79ea"/><path d="M 857.39 186.39000000000001 A 37.28 37.28 0 0 1  894.67 149.11 L 857.39 186.39000000000001 A 37.28 37.28 0 0 0 894.67 149.11" fill="#fffdfe"/><path d="M 857.39 186.39 A 37.28 37.28 0 0 1  894.67 223.67 L 857.39 186.39 A 37.28 37.28 0 0 0 894.67 223.67" fill="#cfd7f9"/><path d="M 74.56 298.23 A 74.56 74.56 0 0 1  149.12 223.67 L 74.56 298.23 A 74.56 74.56 0 0 0 149.12 223.67" fill="#ccd4f8"/><path d="M 298.22 298.23 A 74.56 74.56 0 0 1  372.78000000000003 223.67 L 298.22 298.23 A 74.56 74.56 0 0 0 372.78000000000003 223.67" fill="#869aef"/><rect x="671" y="223.66666666666669" width="74.55555555555556" height="74.55555555555556" fill="#ffffff"/><path d="M 708.28 260.95 A 37.28 37.28 0 0 1  745.56 223.67 L 708.28 260.95 A 37.28 37.28 0 0 0 745.56 223.67" fill="#ffa8bd"/><path d="M 745.56 223.67 A 74.56 74.56 0 0 1  820.1199999999999 298.23 L 745.56 223.67 A 74.56 74.56 0 0 0 820.1199999999999 298.23" fill="#ffd1dc"/><path d="M 820.11 223.67 A 74.56 74.56 0 0 1  894.6700000000001 298.23 L 820.11 223.67 A 74.56 74.56 0 0 0 894.6700000000001 298.23" fill="#637eeb"/><rect x="969.2222222222223" y="223.66666666666669" width="74.55555555555556" height="74.55555555555556" fill="#ffffff"/><path d="M 969.22 223.67 A 37.28 37.28 0 0 1  1006.5 260.95 L 969.22 223.67 A 37.28 37.28 0 0 0 1006.5 260.95" fill="#cdd5f8"/><path d="M 1006.5 223.67 A 37.28 37.28 0 0 1  1043.78 260.95 L 1006.5 223.67 A 37.28 37.28 0 0 0 1043.78 260.95" fill="#5471e9"/><path d="M 969.22 260.94 A 37.28 37.28 0 0 1  1006.5 298.22 L 969.22 260.94 A 37.28 37.28 0 0 0 1006.5 298.22" fill="#97a8f1"/><path d="M 1006.5 260.94 A 37.28 37.28 0 0 1  1043.78 298.22 L 1006.5 260.94 A 37.28 37.28 0 0 0 1043.78 298.22" fill="#ff6f91"/><path d="M 1043.78 298.23 A 74.56 74.56 0 0 1  1118.34 223.67 L 1043.78 298.23 A 74.56 74.56 0 0 0 1118.34 223.67" fill="#5e79ea"/><rect x="0" y="298.22222222222223" width="74.55555555555556" height="74.55555555555556" fill="#ffffff"/><rect x="74.55555555555556" y="298.22222222222223" width="74.55555555555556" height="74.55555555555556" fill="#ffffff"/><path d="M 223.67 298.22 A 74.56 74.56 0 0 1  298.23 372.78000000000003 L 223.67 298.22 A 74.56 74.56 0 0 0 298.23 372.78000000000003" fill="#3f5fe6"/><rect x="372.77777777777777" y="298.22222222222223" width="74.55555555555556" height="74.55555555555556" fill="#ffffff"/><path d="M 372.78 298.22 A 37.28 37.28 0 0 1  410.05999999999995 335.5 L 372.78 298.22 A 37.28 37.28 0 0 0 410.05999999999995 335.5" fill="#ff4873"/><path d="M 410.06 298.22 A 37.28 37.28 0 0 1  447.34000000000003 335.5 L 410.06 298.22 A 37.28 37.28 0 0 0 447.34000000000003 335.5" fill="#fff4f6"/><path d="M 410.06 335.5 A 37.28 37.28 0 0 1  447.34000000000003 372.78 L 410.06 335.5 A 37.28 37.28 0 0 0 447.34000000000003 372.78" fill="#859aef"/><rect x="447.33333333333337" y="298.22222222222223" width="74.55555555555556" height="74.55555555555556" fill="#ffffff"/><path d="M 484.61 335.5 A 37.28 37.28 0 0 1  521.89 298.22 L 484.61 335.5 A 37.28 37.28 0 0 0 521.89 298.22" fill="#ff3968"/><path d="M 447.33 335.5 A 37.28 37.28 0 0 1  484.61 372.78 L 447.33 335.5 A 37.28 37.28 0 0 0 484.61 372.78" fill="#ffdfe7"/><path d="M 484.61 372.78 A 37.28 37.28 0 0 1  521.89 335.5 L 484.61 372.78 A 37.28 37.28 0 0 0 521.89 335.5" fill="#a8b7f4"/><rect x="596.4444444444445" y="298.22222222222223" width="74.55555555555556" height="74.55555555555556" fill="#ffffff"/><path d="M 1043.78 372.78000000000003 A 74.56 74.56 0 0 1  1118.34 298.22 L 1043.78 372.78000000000003 A 74.56 74.56 0 0 0 1118.34 298.22" fill="#fafbfe"/><rect x="0" y="372.77777777777777" width="74.55555555555556" height="74.55555555555556" fill="#ffffff"/><path d="M 0 372.78 A 37.28 37.28 0 0 1  37.28 410.05999999999995 L 0 372.78 A 37.28 37.28 0 0 0 37.28 410.05999999999995" fill="#ff90aa"/><path d="M 37.28 410.05999999999995 A 37.28 37.28 0 0 1  74.56 372.78 L 37.28 410.05999999999995 A 37.28 37.28 0 0 0 74.56 372.78" fill="#4c6ae8"/><path d="M 521.89 447.34 A 74.56 74.56 0 0 1  596.45 372.78 L 521.89 447.34 A 74.56 74.56 0 0 0 596.45 372.78" fill="#ff3a69"/><path d="M 671 372.78 A 74.56 74.56 0 0 1  745.56 447.34 L 671 372.78 A 74.56 74.56 0 0 0 745.56 447.34" fill="#2046e2"/><rect x="1043.7777777777778" y="372.77777777777777" width="74.55555555555556" height="74.55555555555556" fill="#ffffff"/><path d="M 1043.78 410.05999999999995 A 37.28 37.28 0 0 1  1081.06 372.78 L 1043.78 410.05999999999995 A 37.28 37.28 0 0 0 1081.06 372.78" fill="#ff6c8f"/><path d="M 1081.06 410.05999999999995 A 37.28 37.28 0 0 1  1118.34 372.78 L 1081.06 410.05999999999995 A 37.28 37.28 0 0 0 1118.34 372.78" fill="#4a68e7"/><rect x="969.2222222222223" y="447.33333333333337" width="74.55555555555556" height="74.55555555555556" fill="#ffffff"/><path d="M 1006.5 521.89 A 37.28 37.28 0 0 1  1043.78 484.61 L 1006.5 521.89 A 37.28 37.28 0 0 0 1043.78 484.61" fill="#b5c2f5"/><path d="M 1043.78 521.89 A 74.56 74.56 0 0 1  1118.34 447.33 L 1043.78 521.89 A 74.56 74.56 0 0 0 1118.34 447.33" fill="#92a4f1"/><rect x="74.55555555555556" y="521.8888888888889" width="74.55555555555556" height="74.55555555555556" fill="#ffffff"/><path d="M 74.56 559.17 A 37.28 37.28 0 0 1  111.84 521.89 L 74.56 559.17 A 37.28 37.28 0 0 0 111.84 521.89" fill="#ffbfce"/><path d="M 74.56 559.17 A 37.28 37.28 0 0 1  111.84 596.4499999999999 L 74.56 559.17 A 37.28 37.28 0 0 0 111.84 596.4499999999999" fill="#ffa0b7"/><path d="M 111.83 596.4499999999999 A 37.28 37.28 0 0 1  149.11 559.17 L 111.83 596.4499999999999 A 37.28 37.28 0 0 0 149.11 559.17" fill="#8398ef"/><path d="M 223.67 596.45 A 74.56 74.56 0 0 1  298.23 521.89 L 223.67 596.45 A 74.56 74.56 0 0 0 298.23 521.89" fill="#ff547d"/><rect x="372.77777777777777" y="521.8888888888889" width="74.55555555555556" height="74.55555555555556" fill="#ffffff"/><rect x="596.4444444444445" y="521.8888888888889" width="74.55555555555556" height="74.55555555555556" fill="#ffffff"/><path d="M 633.72 521.89 A 37.28 37.28 0 0 1  671 559.17 L 633.72 521.89 A 37.28 37.28 0 0 0 671 559.17" fill="#ffd5df"/><path d="M 596.44 559.17 A 37.28 37.28 0 0 1  633.72 596.4499999999999 L 596.44 559.17 A 37.28 37.28 0 0 0 633.72 596.4499999999999" fill="#ff7193"/><rect x="74.55555555555556" y="596.4444444444445" width="74.55555555555556" height="74.55555555555556" fill="#ffffff"/><path d="M 74.56 596.44 A 37.28 37.28 0 0 1  111.84 633.72 L 74.56 596.44 A 37.28 37.28 0 0 0 111.84 633.72" fill="#ffabbf"/><path d="M 521.89 671 A 74.56 74.56 0 0 1  596.45 596.44 L 521.89 671 A 74.56 74.56 0 0 0 596.45 596.44" fill="#ff426f"/><rect x="596.4444444444445" y="596.4444444444445" width="74.55555555555556" height="74.55555555555556" fill="#ffffff"/><path d="M 671 596.44 A 74.56 74.56 0 0 1  745.56 671 L 671 596.44 A 74.56 74.56 0 0 0 745.56 671" fill="#ffe9ee"/><path d="M 1118.33 671 A 74.56 74.56 0 0 1  1192.8899999999999 596.44 L 1118.33 671 A 74.56 74.56 0 0 0 1192.8899999999999 596.44" fill="#fbfcfe"/></g></svg>