<?xml version="1.0" standalone="no"?><svg xmlns:xlink="http://www.w3.org/1999/xlink" xmlns="http://www.w3.org/2000/svg" viewBox="0 0 1000 562.5041915364495" preserveAspectRatio="xMaxYMax slice"><g transform="scale(0.8383072899201931)"><rect x="0" y="0" width="1192.888888888889" height="671" fill="#ffffff"/><path d="M 0 0 A 74.56 74.56 0 0 1  74.56 74.56 L 0 0 A 74.56 74.56 0 0 0 74.56 74.56" fill="#647eeb"/><path d="M 447.33 74.56 A 74.56 74.56 0 0 1  521.89 0 L 447.33 74.56 A 74.56 74.56 0 0 0 521.89 0" fill="#ffe8ee"/><path d="M 596.44 0 A 74.56 74.56 0 0 1  671 74.56 L 596.44 0 A 74.56 74.56 0 0 0 671 74.56" fill="#e9edfc"/><path d="M 671 0 A 74.56 74.56 0 0 1  745.56 74.56 L 671 0 A 74.56 74.56 0 0 0 745.56 74.56" fill="#3d5ee6"/><path d="M 745.56 0 A 74.56 74.56 0 0 1  820.1199999999999 74.56 L 745.56 0 A 74.56 74.56 0 0 0 820.1199999999999 74.56" fill="#ffe6ec"/><rect x="820.1111111111111" y="0" width="74.55555555555556" height="74.55555555555556" fill="#ffffff"/><path d="M 857.39 37.28 A 37.28 37.28 0 0 1  894.67 0 L 857.39 37.28 A 37.28 37.28 0 0 0 894.67 0" fill="#ffebf0"/><path d="M 820.11 74.56 A 37.28 37.28 0 0 1  857.39 37.28 L 820.11 74.56 A 37.28 37.28 0 0 0 857.39 37.28" fill="#ffaabe"/><path d="M 1118.33 74.56 A 74.56 74.56 0 0 1  1192.8899999999999 0 L 1118.33 74.56 A 74.56 74.56 0 0 0 1192.8899999999999 0" fill="#ffaabe"/><rect x="223.66666666666669" y="74.55555555555556" width="74.55555555555556" height="74.55555555555556" fill="#ffffff"/><path d="M 260.94 149.11 A 37.28 37.28 0 0 1  298.22 111.83 L 260.94 149.11 A 37.28 37.28 0 0 0 298.22 111.83" fill="#fff3f6"/><path d="M 372.78 74.56 A 74.56 74.56 0 0 1  447.34 149.12 L 372.78 74.56 A 74.56 74.56 0 0 0 447.34 149.12" fill="#ccd5f8"/><rect x="521.8888888888889" y="74.55555555555556" width="74.55555555555556" height="74.55555555555556" fill="#ffffff"/><path d="M 521.89 74.56 A 37.28 37.28 0 0 1  559.17 111.84 L 521.89 74.56 A 37.28 37.28 0 0 0 559.17 111.84" fill="#adbbf4"/><path d="M 559.17 149.11 A 37.28 37.28 0 0 1  596.4499999999999 111.83 L 559.17 149.11 A 37.28 37.28 0 0 0 596.4499999999999 111.83" fill="#ff547c"/><path d="M 596.44 149.12 A 74.56 74.56 0 0 1  671 74.56 L 596.44 149.12 A 74.56 74.56 0 0 0 671 74.56" fill="#ff87a4"/><path d="M 894.67 149.12 A 74.56 74.56 0 0 1  969.23 74.56 L 894.67 149.12 A 74.56 74.56 0 0 0 969.23 74.56" fill="#ffc2d0"/><rect x="969.2222222222223" y="74.55555555555556" width="74.55555555555556" height="74.55555555555556" fill="#ffffff"/><rect x="74.55555555555556" y="149.11111111111111" width="74.55555555555556" height="74.55555555555556" fill="#ffffff"/><path d="M 149.11 149.11 A 74.56 74.56 0 0 1  223.67000000000002 223.67000000000002 L 149.11 149.11 A 74.56 74.56 0 0 0 223.67000000000002 223.67000000000002" fill="#ffb9ca"/><path d="M 223.67 223.67000000000002 A 74.56 74.56 0 0 1  298.23 149.11 L 223.67 223.67000000000002 A 74.56 74.56 0 0 0 298.23 149.11" fill="#6c85ec"/><path d="M 596.44 223.67000000000002 A 74.56 74.56 0 0 1  671 149.11 L 596.44 223.67000000000002 A 74.56 74.56 0 0 0 671 149.11" fill="#ff6388"/><path d="M 820.11 223.67000000000002 A 74.56 74.56 0 0 1  894.6700000000001 149.11 L 820.11 223.67000000000002 A 74.56 74.56 0 0 0 894.6700000000001 149.11" fill="#4e6ce8"/><path d="M 1043.78 223.67000000000002 A 74.56 74.56 0 0 1  1118.34 149.11 L 1043.78 223.67000000000002 A 74.56 74.56 0 0 0 1118.34 149.11" fill="#ffb3c5"/><path d="M 0 298.23 A 74.56 74.56 0 0 1  74.56 223.67 L 0 298.23 A 74.56 74.56 0 0 0 74.56 223.67" fill="#fff1f4"/><path d="M 74.56 298.23 A 74.56 74.56 0 0 1  149.12 223.67 L 74.56 298.23 A 74.56 74.56 0 0 0 149.12 223.67" fill="#eef1fd"/><path d="M 149.11 298.23 A 74.56 74.56 0 0 1  223.67000000000002 223.67 L 149.11 298.23 A 74.56 74.56 0 0 0 223.67000000000002 223.67" fill="#3a5be5"/><rect x="447.33333333333337" y="223.66666666666669" width="74.55555555555556" height="74.55555555555556" fill="#ffffff"/><path d="M 484.61 260.95 A 37.28 37.28 0 0 1  521.89 223.67 L 484.61 260.95 A 37.28 37.28 0 0 0 521.89 223.67" fill="#ff3867"/><path d="M 447.33 298.22 A 37.28 37.28 0 0 1  484.61 260.94 L 447.33 298.22 A 37.28 37.28 0 0 0 484.61 260.94" fill="#a1b1f3"/><path d="M 894.67 223.67 A 74.56 74.56 0 0 1  969.23 298.23 L 894.67 223.67 A 74.56 74.56 0 0 0 969.23 298.23" fill="#728aed"/><rect x="0" y="298.22222222222223" width="74.55555555555556" height="74.55555555555556" fill="#ffffff"/><path d="M 223.67 372.78000000000003 A 74.56 74.56 0 0 1  298.23 298.22 L 223.67 372.78000000000003 A 74.56 74.56 0 0 0 298.23 298.22" fill="#ff4470"/><rect x="447.33333333333337" y="298.22222222222223" width="74.55555555555556" height="74.55555555555556" fill="#ffffff"/><path d="M 447.33 298.22 A 37.28 37.28 0 0 1  484.61 335.5 L 447.33 298.22 A 37.28 37.28 0 0 0 484.61 335.5" fill="#e3e7fb"/><rect x="521.8888888888889" y="298.22222222222223" width="74.55555555555556" height="74.55555555555556" fill="#ffffff"/><path d="M 596.44 298.22 A 74.56 74.56 0 0 1  671 372.78000000000003 L 596.44 298.22 A 74.56 74.56 0 0 0 671 372.78000000000003" fill="#98a9f2"/><rect x="298.22222222222223" y="372.77777777777777" width="74.55555555555556" height="74.55555555555556" fill="#ffffff"/><path d="M 298.22 372.78 A 37.28 37.28 0 0 1  335.5 410.05999999999995 L 298.22 372.78 A 37.28 37.28 0 0 0 335.5 410.05999999999995" fill="#4e6ce8"/><path d="M 335.5 372.78 A 37.28 37.28 0 0 1  372.78 410.05999999999995 L 335.5 372.78 A 37.28 37.28 0 0 0 372.78 410.05999999999995" fill="#264ae3"/><path d="M 335.5 447.34000000000003 A 37.28 37.28 0 0 1  372.78 410.06 L 335.5 447.34000000000003 A 37.28 37.28 0 0 0 372.78 410.06" fill="#647eeb"/><rect x="521.8888888888889" y="372.77777777777777" width="74.55555555555556" height="74.55555555555556" fill="#ffffff"/><rect x="671" y="372.77777777777777" width="74.55555555555556" height="74.55555555555556" fill="#ffffff"/><rect x="745.5555555555555" y="372.77777777777777" width="74.55555555555556" height="74.55555555555556" fill="#ffffff"/><path d="M 745.56 372.78 A 37.28 37.28 0 0 1  782.8399999999999 410.05999999999995 L 745.56 372.78 A 37.28 37.28 0 0 0 782.8399999999999 410.05999999999995" fill="#f1f3fd"/><path d="M 969.22 372.78 A 74.56 74.56 0 0 1  1043.78 447.34 L 969.22 372.78 A 74.56 74.56 0 0 0 1043.78 447.34" fill="#f5f7fe"/><rect x="1118.3333333333333" y="372.77777777777777" width="74.55555555555556" height="74.55555555555556" fill="#ffffff"/><path d="M 1155.61 410.06 A 37.28 37.28 0 0 1  1192.8899999999999 447.34000000000003 L 1155.61 410.06 A 37.28 37.28 0 0 0 1192.8899999999999 447.34000000000003" fill="#2f52e4"/><path d="M 372.78 447.33 A 74.56 74.56 0 0 1  447.34 521.89 L 372.78 447.33 A 74.56 74.56 0 0 0 447.34 521.89" fill="#788eed"/><rect x="447.33333333333337" y="447.33333333333337" width="74.55555555555556" height="74.55555555555556" fill="#ffffff"/><path d="M 484.61 521.89 A 37.28 37.28 0 0 1  521.89 484.61 L 484.61 521.89 A 37.28 37.28 0 0 0 521.89 484.61" fill="#c0cbf7"/><rect x="596.4444444444445" y="447.33333333333337" width="74.55555555555556" height="74.55555555555556" fill="#ffffff"/><path d="M 633.72 484.61 A 37.28 37.28 0 0 1  671 447.33 L 633.72 484.61 A 37.28 37.28 0 0 0 671 447.33" fill="#bac6f6"/><path d="M 671 521.89 A 74.56 74.56 0 0 1  745.56 447.33 L 671 521.89 A 74.56 74.56 0 0 0 745.56 447.33" fill="#fff9fa"/><rect x="74.55555555555556" y="521.8888888888889" width="74.55555555555556" height="74.55555555555556" fill="#ffffff"/><path d="M 74.56 521.89 A 37.28 37.28 0 0 1  111.84 559.17 L 74.56 521.89 A 37.28 37.28 0 0 0 111.84 559.17" fill="#fff1f4"/><path d="M 149.11 596.45 A 74.56 74.56 0 0 1  223.67000000000002 521.89 L 149.11 596.45 A 74.56 74.56 0 0 0 223.67000000000002 521.89" fill="#ff8ca8"/><path d="M 298.22 521.89 A 74.56 74.56 0 0 1  372.78000000000003 596.45 L 298.22 521.89 A 74.56 74.56 0 0 0 372.78000000000003 596.45" fill="#8499ef"/><rect x="596.4444444444445" y="521.8888888888889" width="74.55555555555556" height="74.55555555555556" fill="#ffffff"/><path d="M 633.72 559.17 A 37.28 37.28 0 0 1  671 521.89 L 633.72 559.17 A 37.28 37.28 0 0 0 671 521.89" fill="#ff658a"/><path d="M 596.44 559.17 A 37.28 37.28 0 0 1  633.72 596.4499999999999 L 596.44 559.17 A 37.28 37.28 0 0 0 633.72 596.4499999999999" fill="#3355e4"/><path d="M 633.72 596.4499999999999 A 37.28 37.28 0 0 1  671 559.17 L 633.72 596.4499999999999 A 37.28 37.28 0 0 0 671 559.17" fill="#fdfeff"/><rect x="745.5555555555555" y="521.8888888888889" width="74.55555555555556" height="74.55555555555556" fill="#ffffff"/><path d="M 745.56 521.89 A 37.28 37.28 0 0 1  782.8399999999999 559.17 L 745.56 521.89 A 37.28 37.28 0 0 0 782.8399999999999 559.17" fill="#f9fafe"/><path d="M 782.83 521.89 A 37.28 37.28 0 0 1  820.11 559.17 L 782.83 521.89 A 37.28 37.28 0 0 0 820.11 559.17" fill="#dbe1fa"/><path d="M 745.56 559.17 A 37.28 37.28 0 0 1  782.8399999999999 596.4499999999999 L 745.56 559.17 A 37.28 37.28 0 0 0 782.8399999999999 596.4499999999999" fill="#ffe4ea"/><path d="M 782.83 559.17 A 37.28 37.28 0 0 1  820.11 596.4499999999999 L 782.83 559.17 A 37.28 37.28 0 0 0 820.11 596.4499999999999" fill="#ffd0db"/><rect x="1043.7777777777778" y="521.8888888888889" width="74.55555555555556" height="74.55555555555556" fill="#ffffff"/><path d="M 1081.06 559.17 A 37.28 37.28 0 0 1  1118.34 521.89 L 1081.06 559.17 A 37.28 37.28 0 0 0 1118.34 521.89" fill="#ff5f85"/><path d="M 1043.78 559.17 A 37.28 37.28 0 0 1  1081.06 596.4499999999999 L 1043.78 559.17 A 37.28 37.28 0 0 0 1081.06 596.4499999999999" fill="#9aabf2"/><rect x="1118.3333333333333" y="521.8888888888889" width="74.55555555555556" height="74.55555555555556" fill="#ffffff"/><path d="M 1155.61 559.17 A 37.28 37.28 0 0 1  1192.8899999999999 521.89 L 1155.61 559.17 A 37.28 37.28 0 0 0 1192.8899999999999 521.89" fill="#ff7898"/><path d="M 1118.33 559.17 A 37.28 37.28 0 0 1  1155.61 596.4499999999999 L 1118.33 559.17 A 37.28 37.28 0 0 0 1155.61 596.4499999999999" fill="#ffd2dd"/><rect x="74.55555555555556" y="596.4444444444445" width="74.55555555555556" height="74.55555555555556" fill="#ffffff"/><rect x="149.11111111111111" y="596.4444444444445" width="74.55555555555556" height="74.55555555555556" fill="#ffffff"/><path d="M 186.39 596.44 A 37.28 37.28 0 0 1  223.67 633.72 L 186.39 596.44 A 37.28 37.28 0 0 0 223.67 633.72" fill="#ffafc2"/><path d="M 149.11 633.72 A 37.28 37.28 0 0 1  186.39000000000001 671 L 149.11 633.72 A 37.28 37.28 0 0 0 186.39000000000001 671" fill="#ff4a75"/><rect x="223.66666666666669" y="596.4444444444445" width="74.55555555555556" height="74.55555555555556" fill="#ffffff"/><rect x="745.5555555555555" y="596.4444444444445" width="74.55555555555556" height="74.55555555555556" fill="#ffffff"/><path d="M 745.56 596.44 A 37.28 37.28 0 0 1  782.8399999999999 633.72 L 745.56 596.44 A 37.28 37.28 0 0 0 782.8399999999999 633.72" fill="#6e86ec"/><path d="M 782.83 633.72 A 37.28 37.28 0 0 1  820.11 596.44 L 782.83 633.72 A 37.28 37.28 0 0 0 820.11 596.44" fill="#acbaf4"/><path d="M 745.56 633.72 A 37.28 37.28 0 0 1  782.8399999999999 671 L 745.56 633.72 A 37.28 37.28 0 0 0 782.8399999999999 671" fill="#ffd2dc"/><path d="M 782.83 633.72 A 37.28 37.28 0 0 1  820.11 671 L 782.83 633.72 A 37.28 37.28 0 0 0 820.11 671" fill="#9faff3"/></g></svg>